<?xml version="1.0" encoding="UTF-8"?>
<svg version="1.1" xmlns="http://www.w3.org/2000/svg" width="258" height="604">
<path d="M0 0 C1.30406925 -0.01564648 1.30406925 -0.01564648 2.63448334 -0.03160906 C3.58505867 -0.02268617 4.535634 -0.01376328 5.51501465 -0.00457001 C6.52833107 -0.01080997 7.54164749 -0.01704993 8.58567047 -0.02347898 C11.99138957 -0.03947225 15.39639923 -0.02677957 18.80212402 -0.01421356 C21.2395469 -0.01963184 23.67696651 -0.02675284 26.11437988 -0.0354538 C32.05356647 -0.05182602 37.99256786 -0.04939346 43.93174934 -0.03780323 C48.75810532 -0.02877414 53.58440461 -0.02754262 58.4107666 -0.0318985 C59.09735934 -0.03251143 59.78395207 -0.03312436 60.49135065 -0.03375587 C61.88609761 -0.03503475 63.28084455 -0.03633161 64.67559147 -0.03764623 C77.75790271 -0.04905575 90.84010189 -0.03593254 103.92239475 -0.01444477 C115.15058981 0.00342659 126.37861945 0.00032259 137.60681152 -0.01811981 C150.64191156 -0.03952001 163.67691335 -0.04795708 176.7120285 -0.03567076 C178.10167947 -0.03439654 179.49133045 -0.03313906 180.88098145 -0.0318985 C181.56473799 -0.0312814 182.24849454 -0.03066429 182.95297098 -0.03002849 C187.77421328 -0.02657302 192.59539332 -0.03240814 197.41662598 -0.04181671 C203.90419263 -0.05419866 210.39152004 -0.04539858 216.87905884 -0.02223969 C219.26396158 -0.01693815 221.64889056 -0.01849087 224.03378296 -0.02729034 C227.2817923 -0.03817201 230.52878911 -0.02457072 233.7767334 -0.00457001 C235.2025964 -0.01795434 235.2025964 -0.01795434 236.65726471 -0.03160906 C237.52664421 -0.02117807 238.39602371 -0.01074708 239.29174805 0 C240.04142601 0.00064941 240.79110397 0.00129882 241.56349945 0.00196791 C244.76475985 0.77277124 245.78048197 1.76952233 247.64587402 4.50336456 C248.24051469 7.7534944 248.18203034 10.96489583 248.14923859 14.26110077 C248.15505235 15.26741173 248.16086611 16.27372269 248.16685605 17.31052792 C248.18154803 20.70992501 248.16752757 24.10861044 248.15380859 27.50800323 C248.15841385 29.95873988 248.16476423 32.40947377 248.17271757 34.86020184 C248.18597738 40.20265799 248.18671144 45.54490085 248.17652893 50.88734818 C248.16142851 58.83157382 248.16911848 66.77566262 248.18136216 74.71988729 C248.20245171 88.906392 248.20058902 103.09282477 248.18904651 117.27933636 C248.1789949 129.6939758 248.17635251 142.10858883 248.18113708 154.52323151 C248.18144263 155.34586604 248.18174817 156.16850057 248.18206296 157.01606341 C248.18330826 160.35517991 248.18458186 163.69429639 248.18590202 167.03341286 C248.19814541 198.37405238 248.18703248 229.71464602 248.16551443 261.05527847 C248.14653119 288.91592811 248.14822966 316.77650462 248.1673584 344.63715363 C248.18876448 375.91948602 248.19727721 407.20177785 248.18490934 438.48411655 C248.18362642 441.81724357 248.18237506 445.15037059 248.18113708 448.48349762 C248.18082078 449.30423331 248.18050447 450.124969 248.18017857 450.97057547 C248.17562353 463.37917049 248.18095935 475.78773624 248.1910553 488.19632721 C248.20247436 502.30167201 248.19967153 516.40693345 248.17793232 530.51226783 C248.16615947 538.41217623 248.16546009 546.31190424 248.18051702 554.21180808 C248.19050368 560.09947995 248.17972591 565.98699125 248.16061872 571.87464488 C248.15612714 574.26488732 248.1584756 576.65515375 248.16812187 579.04538095 C248.18017767 582.27914861 248.16792073 585.51191423 248.14923859 588.74562836 C248.15860325 589.6869581 248.16796792 590.62828785 248.17761636 591.59814274 C248.10499568 597.83049466 248.10499568 597.83049466 245.88654661 601.08176279 C243.42077271 602.6461808 242.18531174 603.00422257 239.29174805 603.00672913 C238.42236855 603.01716012 237.55298904 603.0275911 236.65726471 603.03833818 C235.70668938 603.0294153 234.75611404 603.02049241 233.7767334 603.01129913 C232.76341698 603.0175391 231.75010056 603.02377906 230.70607758 603.03020811 C227.30035848 603.04620137 223.89534881 603.03350869 220.48962402 603.02094269 C218.05220114 603.02636097 215.61478154 603.03348197 213.17736816 603.04218292 C207.23818158 603.05855515 201.29918019 603.05612259 195.3599987 603.04453236 C190.53364273 603.03550326 185.70734344 603.03427175 180.88098145 603.03862762 C180.19438871 603.03924056 179.50779597 603.03985349 178.8003974 603.04048499 C177.40565044 603.04176388 176.0109035 603.04306073 174.61615658 603.04437536 C161.53384533 603.05578488 148.45164616 603.04266167 135.36935329 603.02117389 C124.14115824 603.00330254 112.91312859 603.00640654 101.68493652 603.02484894 C88.64983648 603.04624913 75.6148347 603.05468621 62.57971954 603.04239988 C61.19006858 603.04112567 59.8004176 603.03986819 58.4107666 603.03862762 C57.72701005 603.03801052 57.04325351 603.03739342 56.33877707 603.03675762 C51.51753477 603.03330215 46.69635473 603.03913727 41.87512207 603.04854584 C35.38755542 603.06092778 28.90022801 603.0521277 22.41268921 603.02896881 C20.02778647 603.02366728 17.64285749 603.02522 15.25796509 603.03401947 C12.00995575 603.04490113 8.76295894 603.03129985 5.51501465 603.01129913 C4.56443932 603.02022202 3.61386398 603.02914491 2.63448334 603.03833818 C1.76510384 603.0279072 0.89572433 603.01747621 0 603.00672913 C-0.74967796 603.00607972 -1.49935593 603.00543031 -2.2717514 603.00476122 C-5.4730118 602.23395789 -6.48873392 601.23720679 -8.35412598 598.50336456 C-8.94876664 595.25323473 -8.89028229 592.0418333 -8.85749054 588.74562836 C-8.8633043 587.7393174 -8.86911807 586.73300644 -8.875108 585.69620121 C-8.88979998 582.29680412 -8.87577952 578.89811869 -8.86206055 575.49872589 C-8.86666581 573.04798925 -8.87301618 570.59725536 -8.88096952 568.14652729 C-8.89422933 562.80407114 -8.89496339 557.46182828 -8.88478088 552.11938095 C-8.86968046 544.1751553 -8.87737043 536.23106651 -8.88961411 528.28684184 C-8.91070366 514.10033713 -8.90884097 499.91390436 -8.89729846 485.72739276 C-8.88724685 473.31275332 -8.88460447 460.89814029 -8.88938904 448.48349762 C-8.88969458 447.66086309 -8.89000012 446.83822856 -8.89031492 445.99066571 C-8.89156022 442.65154922 -8.89283381 439.31243274 -8.89415397 435.97331627 C-8.90639736 404.63267674 -8.89528443 373.29208311 -8.87376639 341.95145066 C-8.85478314 314.09080102 -8.85648161 286.2302245 -8.87561035 258.3695755 C-8.89701644 227.0872431 -8.90552916 195.80495127 -8.8931613 164.52261257 C-8.89187838 161.18948556 -8.89062702 157.85635854 -8.88938904 154.52323151 C-8.88907273 153.70249581 -8.88875642 152.88176012 -8.88843052 152.03615365 C-8.88387548 139.62755863 -8.8892113 127.21899288 -8.89930725 114.81040192 C-8.91072631 100.70505711 -8.90792349 86.59979567 -8.88618428 72.4944613 C-8.87441143 64.59455289 -8.87371205 56.69482489 -8.88876897 48.79492104 C-8.89875563 42.90724918 -8.88797786 37.01973788 -8.86887068 31.13208425 C-8.86437909 28.7418418 -8.86672756 26.35157538 -8.87637383 23.96134818 C-8.88842963 20.72758052 -8.87617269 17.49481489 -8.85749054 14.26110077 C-8.8668552 13.31977102 -8.87621987 12.37844127 -8.88586831 11.40858638 C-8.81324763 5.17623447 -8.81324763 5.17623447 -6.59479856 1.92496634 C-4.12902466 0.36054833 -2.8935637 0.00250655 0 0 Z " fill="#800000" transform="translate(9.3541259765625,0.49663543701171875)"/>
</svg>
